<mxfile host="app.diagrams.net" agent="Mozilla/5.0 (Windows NT 10.0; Win64; x64) AppleWebKit/537.36 (KHTML, like Gecko) Chrome/126.0.0.0 Safari/537.36" version="26.1.0">
  <diagram name="Page-1" id="PB4VBSpsoKnMZAa3M8EH">
    <mxGraphModel dx="1850" dy="1642" grid="1" gridSize="10" guides="1" tooltips="1" connect="1" arrows="1" fold="1" page="1" pageScale="1" pageWidth="850" pageHeight="1100" math="0" shadow="0">
      <root>
        <mxCell id="0" />
        <mxCell id="1" parent="0" />
        <mxCell id="fO4p4vOUp24_XmXOgc4b-10" value="" style="rounded=0;whiteSpace=wrap;html=1;" parent="1" vertex="1">
          <mxGeometry x="840" y="-1100" width="1710" height="2200" as="geometry" />
        </mxCell>
        <mxCell id="pXv-PGPB3i6eV_hMqMwG-11" value="" style="edgeStyle=orthogonalEdgeStyle;rounded=0;orthogonalLoop=1;jettySize=auto;html=1;" parent="1" source="pXv-PGPB3i6eV_hMqMwG-1" target="pXv-PGPB3i6eV_hMqMwG-10" edge="1">
          <mxGeometry relative="1" as="geometry" />
        </mxCell>
        <mxCell id="pXv-PGPB3i6eV_hMqMwG-1" value="&lt;font face=&quot;Times New Roman&quot;&gt;Mulai&lt;/font&gt;" style="ellipse;whiteSpace=wrap;html=1;" parent="1" vertex="1">
          <mxGeometry width="120" height="80" as="geometry" />
        </mxCell>
        <mxCell id="pXv-PGPB3i6eV_hMqMwG-21" value="" style="edgeStyle=orthogonalEdgeStyle;rounded=0;orthogonalLoop=1;jettySize=auto;html=1;" parent="1" source="pXv-PGPB3i6eV_hMqMwG-10" target="pXv-PGPB3i6eV_hMqMwG-17" edge="1">
          <mxGeometry relative="1" as="geometry" />
        </mxCell>
        <mxCell id="pXv-PGPB3i6eV_hMqMwG-10" value="&lt;font face=&quot;Times New Roman&quot;&gt;User&lt;/font&gt;" style="shape=umlActor;verticalLabelPosition=bottom;verticalAlign=top;html=1;outlineConnect=0;" parent="1" vertex="1">
          <mxGeometry x="170" y="10" width="30" height="60" as="geometry" />
        </mxCell>
        <mxCell id="pXv-PGPB3i6eV_hMqMwG-25" value="" style="edgeStyle=orthogonalEdgeStyle;rounded=0;orthogonalLoop=1;jettySize=auto;html=1;" parent="1" source="pXv-PGPB3i6eV_hMqMwG-17" target="pXv-PGPB3i6eV_hMqMwG-24" edge="1">
          <mxGeometry relative="1" as="geometry" />
        </mxCell>
        <mxCell id="fO4p4vOUp24_XmXOgc4b-2" value="" style="edgeStyle=orthogonalEdgeStyle;rounded=0;orthogonalLoop=1;jettySize=auto;html=1;" parent="1" source="pXv-PGPB3i6eV_hMqMwG-17" target="fO4p4vOUp24_XmXOgc4b-1" edge="1">
          <mxGeometry relative="1" as="geometry" />
        </mxCell>
        <mxCell id="pXv-PGPB3i6eV_hMqMwG-17" value="&lt;font face=&quot;Times New Roman&quot;&gt;Have&lt;br&gt;Account?&lt;/font&gt;" style="rhombus;whiteSpace=wrap;html=1;rounded=0;" parent="1" vertex="1">
          <mxGeometry x="240" width="80" height="80" as="geometry" />
        </mxCell>
        <mxCell id="pXv-PGPB3i6eV_hMqMwG-61" value="" style="edgeStyle=orthogonalEdgeStyle;rounded=0;orthogonalLoop=1;jettySize=auto;html=1;" parent="1" source="pXv-PGPB3i6eV_hMqMwG-22" target="pXv-PGPB3i6eV_hMqMwG-60" edge="1">
          <mxGeometry relative="1" as="geometry" />
        </mxCell>
        <mxCell id="pXv-PGPB3i6eV_hMqMwG-22" value="Login" style="whiteSpace=wrap;html=1;rounded=0;" parent="1" vertex="1">
          <mxGeometry x="560" y="10" width="120" height="60" as="geometry" />
        </mxCell>
        <mxCell id="pXv-PGPB3i6eV_hMqMwG-45" value="" style="edgeStyle=orthogonalEdgeStyle;rounded=0;orthogonalLoop=1;jettySize=auto;html=1;" parent="1" source="pXv-PGPB3i6eV_hMqMwG-24" target="pXv-PGPB3i6eV_hMqMwG-35" edge="1">
          <mxGeometry relative="1" as="geometry" />
        </mxCell>
        <mxCell id="pXv-PGPB3i6eV_hMqMwG-24" value="&lt;font face=&quot;Times New Roman&quot;&gt;Register&lt;/font&gt;" style="whiteSpace=wrap;html=1;rounded=0;" parent="1" vertex="1">
          <mxGeometry x="220" y="170" width="120" height="60" as="geometry" />
        </mxCell>
        <mxCell id="pXv-PGPB3i6eV_hMqMwG-26" value="&lt;font face=&quot;Times New Roman&quot;&gt;Yes&lt;/font&gt;" style="text;html=1;align=center;verticalAlign=middle;resizable=0;points=[];autosize=1;strokeColor=none;fillColor=none;" parent="1" vertex="1">
          <mxGeometry x="310" y="20" width="40" height="30" as="geometry" />
        </mxCell>
        <mxCell id="pXv-PGPB3i6eV_hMqMwG-27" value="&lt;font face=&quot;Times New Roman&quot;&gt;No&lt;/font&gt;" style="text;html=1;align=center;verticalAlign=middle;resizable=0;points=[];autosize=1;strokeColor=none;fillColor=none;" parent="1" vertex="1">
          <mxGeometry x="270" y="80" width="40" height="30" as="geometry" />
        </mxCell>
        <mxCell id="pXv-PGPB3i6eV_hMqMwG-48" style="edgeStyle=orthogonalEdgeStyle;rounded=0;orthogonalLoop=1;jettySize=auto;html=1;entryX=0.5;entryY=0;entryDx=0;entryDy=0;" parent="1" source="pXv-PGPB3i6eV_hMqMwG-29" target="pXv-PGPB3i6eV_hMqMwG-37" edge="1">
          <mxGeometry relative="1" as="geometry" />
        </mxCell>
        <mxCell id="pXv-PGPB3i6eV_hMqMwG-50" style="edgeStyle=orthogonalEdgeStyle;rounded=0;orthogonalLoop=1;jettySize=auto;html=1;entryX=0;entryY=0.5;entryDx=0;entryDy=0;" parent="1" source="pXv-PGPB3i6eV_hMqMwG-29" target="pXv-PGPB3i6eV_hMqMwG-35" edge="1">
          <mxGeometry relative="1" as="geometry">
            <mxPoint x="210" y="340" as="targetPoint" />
            <Array as="points">
              <mxPoint x="160" y="510" />
              <mxPoint x="160" y="350" />
            </Array>
          </mxGeometry>
        </mxCell>
        <mxCell id="pXv-PGPB3i6eV_hMqMwG-29" value="&lt;font face=&quot;Times New Roman&quot;&gt;Email&lt;br&gt;Or&lt;br&gt;Username&lt;br&gt;Used?&lt;/font&gt;" style="rhombus;whiteSpace=wrap;html=1;rounded=0;" parent="1" vertex="1">
          <mxGeometry x="230" y="460" width="100" height="100" as="geometry" />
        </mxCell>
        <mxCell id="pXv-PGPB3i6eV_hMqMwG-46" value="" style="edgeStyle=orthogonalEdgeStyle;rounded=0;orthogonalLoop=1;jettySize=auto;html=1;" parent="1" source="pXv-PGPB3i6eV_hMqMwG-35" target="pXv-PGPB3i6eV_hMqMwG-29" edge="1">
          <mxGeometry relative="1" as="geometry" />
        </mxCell>
        <mxCell id="pXv-PGPB3i6eV_hMqMwG-35" value="&lt;font face=&quot;Times New Roman&quot;&gt;Form&lt;br&gt;User Bio&#39;s&lt;/font&gt;" style="shape=parallelogram;perimeter=parallelogramPerimeter;whiteSpace=wrap;html=1;fixedSize=1;rounded=0;" parent="1" vertex="1">
          <mxGeometry x="220" y="320" width="120" height="60" as="geometry" />
        </mxCell>
        <mxCell id="pXv-PGPB3i6eV_hMqMwG-52" style="edgeStyle=orthogonalEdgeStyle;rounded=0;orthogonalLoop=1;jettySize=auto;html=1;" parent="1" source="pXv-PGPB3i6eV_hMqMwG-37" edge="1">
          <mxGeometry relative="1" as="geometry">
            <mxPoint x="160" y="510" as="targetPoint" />
          </mxGeometry>
        </mxCell>
        <mxCell id="pXv-PGPB3i6eV_hMqMwG-54" value="" style="edgeStyle=orthogonalEdgeStyle;rounded=0;orthogonalLoop=1;jettySize=auto;html=1;" parent="1" source="pXv-PGPB3i6eV_hMqMwG-37" target="pXv-PGPB3i6eV_hMqMwG-53" edge="1">
          <mxGeometry relative="1" as="geometry" />
        </mxCell>
        <mxCell id="pXv-PGPB3i6eV_hMqMwG-37" value="&lt;font face=&quot;Times New Roman&quot;&gt;isValidInput?&lt;/font&gt;" style="rhombus;whiteSpace=wrap;html=1;rounded=0;" parent="1" vertex="1">
          <mxGeometry x="230" y="630" width="100" height="100" as="geometry" />
        </mxCell>
        <mxCell id="pXv-PGPB3i6eV_hMqMwG-39" value="&lt;font face=&quot;Times New Roman&quot;&gt;No&lt;/font&gt;" style="text;html=1;align=center;verticalAlign=middle;resizable=0;points=[];autosize=1;strokeColor=none;fillColor=none;" parent="1" vertex="1">
          <mxGeometry x="270" y="550" width="40" height="30" as="geometry" />
        </mxCell>
        <mxCell id="pXv-PGPB3i6eV_hMqMwG-43" value="&lt;font face=&quot;Times New Roman&quot;&gt;No&lt;/font&gt;" style="text;html=1;align=center;verticalAlign=middle;resizable=0;points=[];autosize=1;strokeColor=none;fillColor=none;" parent="1" vertex="1">
          <mxGeometry x="210" y="650" width="40" height="30" as="geometry" />
        </mxCell>
        <mxCell id="pXv-PGPB3i6eV_hMqMwG-51" value="&lt;font face=&quot;Times New Roman&quot;&gt;Yes&lt;/font&gt;" style="text;html=1;align=center;verticalAlign=middle;resizable=0;points=[];autosize=1;strokeColor=none;fillColor=none;" parent="1" vertex="1">
          <mxGeometry x="200" y="490" width="40" height="30" as="geometry" />
        </mxCell>
        <mxCell id="pXv-PGPB3i6eV_hMqMwG-55" style="edgeStyle=orthogonalEdgeStyle;rounded=0;orthogonalLoop=1;jettySize=auto;html=1;entryX=0.5;entryY=1;entryDx=0;entryDy=0;" parent="1" source="pXv-PGPB3i6eV_hMqMwG-53" target="pXv-PGPB3i6eV_hMqMwG-1" edge="1">
          <mxGeometry relative="1" as="geometry" />
        </mxCell>
        <mxCell id="pXv-PGPB3i6eV_hMqMwG-53" value="&lt;font face=&quot;Times New Roman&quot;&gt;Success?&lt;/font&gt;" style="rhombus;whiteSpace=wrap;html=1;rounded=0;" parent="1" vertex="1">
          <mxGeometry x="230" y="810" width="100" height="100" as="geometry" />
        </mxCell>
        <mxCell id="pXv-PGPB3i6eV_hMqMwG-56" value="&lt;font face=&quot;Times New Roman&quot;&gt;No&lt;/font&gt;" style="text;html=1;align=center;verticalAlign=middle;resizable=0;points=[];autosize=1;strokeColor=none;fillColor=none;" parent="1" vertex="1">
          <mxGeometry x="200" y="830" width="40" height="30" as="geometry" />
        </mxCell>
        <mxCell id="pXv-PGPB3i6eV_hMqMwG-57" value="&lt;font face=&quot;Times New Roman&quot;&gt;Yes&lt;/font&gt;" style="text;html=1;align=center;verticalAlign=middle;resizable=0;points=[];autosize=1;strokeColor=none;fillColor=none;" parent="1" vertex="1">
          <mxGeometry x="270" y="730" width="40" height="30" as="geometry" />
        </mxCell>
        <mxCell id="pXv-PGPB3i6eV_hMqMwG-58" value="&lt;font face=&quot;Times New Roman&quot;&gt;Yes&lt;/font&gt;" style="text;html=1;align=center;verticalAlign=middle;resizable=0;points=[];autosize=1;strokeColor=none;fillColor=none;" parent="1" vertex="1">
          <mxGeometry x="320" y="840" width="40" height="30" as="geometry" />
        </mxCell>
        <mxCell id="pXv-PGPB3i6eV_hMqMwG-62" style="edgeStyle=orthogonalEdgeStyle;rounded=0;orthogonalLoop=1;jettySize=auto;html=1;entryX=0.5;entryY=0;entryDx=0;entryDy=0;" parent="1" source="pXv-PGPB3i6eV_hMqMwG-60" target="pXv-PGPB3i6eV_hMqMwG-1" edge="1">
          <mxGeometry relative="1" as="geometry" />
        </mxCell>
        <mxCell id="fO4p4vOUp24_XmXOgc4b-7" style="edgeStyle=orthogonalEdgeStyle;rounded=0;orthogonalLoop=1;jettySize=auto;html=1;" parent="1" source="pXv-PGPB3i6eV_hMqMwG-60" target="fO4p4vOUp24_XmXOgc4b-9" edge="1">
          <mxGeometry relative="1" as="geometry">
            <mxPoint x="800" y="-110" as="targetPoint" />
          </mxGeometry>
        </mxCell>
        <mxCell id="pXv-PGPB3i6eV_hMqMwG-60" value="&lt;font face=&quot;Times New Roman&quot;&gt;isValid?&lt;br&gt;&amp;amp;&amp;amp;&lt;br&gt;Success?&lt;/font&gt;" style="rhombus;whiteSpace=wrap;html=1;rounded=0;" parent="1" vertex="1">
          <mxGeometry x="570" y="-160" width="100" height="100" as="geometry" />
        </mxCell>
        <mxCell id="pXv-PGPB3i6eV_hMqMwG-63" value="&lt;font face=&quot;Times New Roman&quot;&gt;No&lt;/font&gt;" style="text;html=1;align=center;verticalAlign=middle;resizable=0;points=[];autosize=1;strokeColor=none;fillColor=none;" parent="1" vertex="1">
          <mxGeometry x="540" y="-130" width="40" height="30" as="geometry" />
        </mxCell>
        <mxCell id="pXv-PGPB3i6eV_hMqMwG-64" value="&lt;font face=&quot;Times New Roman&quot;&gt;Yes&lt;/font&gt;" style="text;html=1;align=center;verticalAlign=middle;resizable=0;points=[];autosize=1;strokeColor=none;fillColor=none;" parent="1" vertex="1">
          <mxGeometry x="660" y="-130" width="40" height="30" as="geometry" />
        </mxCell>
        <mxCell id="fO4p4vOUp24_XmXOgc4b-5" value="" style="edgeStyle=orthogonalEdgeStyle;rounded=0;orthogonalLoop=1;jettySize=auto;html=1;" parent="1" source="pXv-PGPB3i6eV_hMqMwG-65" target="fO4p4vOUp24_XmXOgc4b-4" edge="1">
          <mxGeometry relative="1" as="geometry" />
        </mxCell>
        <mxCell id="pXv-PGPB3i6eV_hMqMwG-65" value="&lt;font face=&quot;Times New Roman&quot;&gt;Save to&lt;br&gt;SESSION()&lt;/font&gt;" style="shape=process;whiteSpace=wrap;html=1;backgroundOutline=1;" parent="1" vertex="1">
          <mxGeometry x="690" y="-180" width="100" height="40" as="geometry" />
        </mxCell>
        <mxCell id="fO4p4vOUp24_XmXOgc4b-3" value="" style="edgeStyle=orthogonalEdgeStyle;rounded=0;orthogonalLoop=1;jettySize=auto;html=1;" parent="1" source="fO4p4vOUp24_XmXOgc4b-1" target="pXv-PGPB3i6eV_hMqMwG-22" edge="1">
          <mxGeometry relative="1" as="geometry" />
        </mxCell>
        <mxCell id="fO4p4vOUp24_XmXOgc4b-1" value="&lt;font face=&quot;Times New Roman&quot;&gt;Form&lt;br&gt;User Login&lt;/font&gt;" style="shape=parallelogram;perimeter=parallelogramPerimeter;whiteSpace=wrap;html=1;fixedSize=1;rounded=0;" parent="1" vertex="1">
          <mxGeometry x="380" y="10" width="120" height="60" as="geometry" />
        </mxCell>
        <mxCell id="N3VXaW1i1DPhtXQMKX1L-7" style="edgeStyle=orthogonalEdgeStyle;rounded=0;orthogonalLoop=1;jettySize=auto;html=1;entryX=0;entryY=0.5;entryDx=0;entryDy=0;" parent="1" source="fO4p4vOUp24_XmXOgc4b-4" target="N3VXaW1i1DPhtXQMKX1L-6" edge="1">
          <mxGeometry relative="1" as="geometry" />
        </mxCell>
        <mxCell id="fO4p4vOUp24_XmXOgc4b-4" value="&lt;font face=&quot;Times New Roman&quot;&gt;Klinik Owner&lt;/font&gt;&lt;div&gt;&lt;font face=&quot;Times New Roman&quot;&gt;(Member)&lt;br&gt;*Default Role&lt;/font&gt;&lt;/div&gt;" style="whiteSpace=wrap;html=1;" parent="1" vertex="1">
          <mxGeometry x="680" y="-310" width="120" height="60" as="geometry" />
        </mxCell>
        <mxCell id="fO4p4vOUp24_XmXOgc4b-9" value="&lt;font face=&quot;Times New Roman&quot;&gt;Main Menu&lt;br&gt;Header&lt;/font&gt;&lt;div&gt;&lt;font face=&quot;Times New Roman&quot;&gt;(Load By Session&amp;nbsp; Role DB)&lt;/font&gt;&lt;/div&gt;" style="shape=process;whiteSpace=wrap;html=1;backgroundOutline=1;" parent="1" vertex="1">
          <mxGeometry x="890" y="-140" width="120" height="60" as="geometry" />
        </mxCell>
        <mxCell id="fO4p4vOUp24_XmXOgc4b-17" value="" style="edgeStyle=orthogonalEdgeStyle;rounded=0;orthogonalLoop=1;jettySize=auto;html=1;" parent="1" source="fO4p4vOUp24_XmXOgc4b-11" target="fO4p4vOUp24_XmXOgc4b-16" edge="1">
          <mxGeometry relative="1" as="geometry" />
        </mxCell>
        <mxCell id="fO4p4vOUp24_XmXOgc4b-24" style="edgeStyle=orthogonalEdgeStyle;rounded=0;orthogonalLoop=1;jettySize=auto;html=1;exitX=1;exitY=0.25;exitDx=0;exitDy=0;entryX=0;entryY=0.5;entryDx=0;entryDy=0;" parent="1" source="fO4p4vOUp24_XmXOgc4b-11" target="fO4p4vOUp24_XmXOgc4b-23" edge="1">
          <mxGeometry relative="1" as="geometry">
            <Array as="points">
              <mxPoint x="1250" y="-125" />
              <mxPoint x="1250" y="-200" />
            </Array>
          </mxGeometry>
        </mxCell>
        <mxCell id="fO4p4vOUp24_XmXOgc4b-11" value="&lt;font face=&quot;Times New Roman&quot;&gt;Master Data&lt;/font&gt;" style="rounded=0;whiteSpace=wrap;html=1;" parent="1" vertex="1">
          <mxGeometry x="1060" y="-140" width="120" height="60" as="geometry" />
        </mxCell>
        <mxCell id="fO4p4vOUp24_XmXOgc4b-19" value="" style="edgeStyle=orthogonalEdgeStyle;rounded=0;orthogonalLoop=1;jettySize=auto;html=1;" parent="1" source="fO4p4vOUp24_XmXOgc4b-16" target="fO4p4vOUp24_XmXOgc4b-18" edge="1">
          <mxGeometry relative="1" as="geometry" />
        </mxCell>
        <mxCell id="fO4p4vOUp24_XmXOgc4b-16" value="&lt;font face=&quot;Times New Roman&quot;&gt;Wilayah&lt;/font&gt;" style="shape=parallelogram;perimeter=parallelogramPerimeter;whiteSpace=wrap;html=1;fixedSize=1;rounded=0;" parent="1" vertex="1">
          <mxGeometry x="1260" y="-140" width="120" height="60" as="geometry" />
        </mxCell>
        <mxCell id="fO4p4vOUp24_XmXOgc4b-18" value="&lt;font face=&quot;Times New Roman&quot;&gt;Provinsi&lt;br&gt;Kabupaten&lt;/font&gt;&lt;div&gt;&lt;font face=&quot;Times New Roman&quot;&gt;Kecamatan&lt;/font&gt;&lt;/div&gt;&lt;div&gt;&lt;font face=&quot;Times New Roman&quot;&gt;Kelurahan&lt;/font&gt;&lt;/div&gt;" style="shape=parallelogram;perimeter=parallelogramPerimeter;whiteSpace=wrap;html=1;fixedSize=1;rounded=0;" parent="1" vertex="1">
          <mxGeometry x="1460" y="-140" width="120" height="60" as="geometry" />
        </mxCell>
        <mxCell id="fO4p4vOUp24_XmXOgc4b-26" value="" style="edgeStyle=orthogonalEdgeStyle;rounded=0;orthogonalLoop=1;jettySize=auto;html=1;" parent="1" source="fO4p4vOUp24_XmXOgc4b-23" target="fO4p4vOUp24_XmXOgc4b-25" edge="1">
          <mxGeometry relative="1" as="geometry" />
        </mxCell>
        <mxCell id="fO4p4vOUp24_XmXOgc4b-23" value="&lt;font face=&quot;Times New Roman&quot;&gt;User System&lt;/font&gt;" style="shape=parallelogram;perimeter=parallelogramPerimeter;whiteSpace=wrap;html=1;fixedSize=1;rounded=0;" parent="1" vertex="1">
          <mxGeometry x="1275" y="-230" width="120" height="60" as="geometry" />
        </mxCell>
        <mxCell id="fO4p4vOUp24_XmXOgc4b-25" value="&lt;font face=&quot;Times New Roman&quot;&gt;User&lt;/font&gt;&lt;div&gt;&lt;font face=&quot;Times New Roman&quot;&gt;Role&lt;/font&gt;&lt;/div&gt;&lt;div&gt;&lt;font face=&quot;Times New Roman&quot;&gt;Privilege&lt;/font&gt;&lt;/div&gt;" style="shape=parallelogram;perimeter=parallelogramPerimeter;whiteSpace=wrap;html=1;fixedSize=1;rounded=0;" parent="1" vertex="1">
          <mxGeometry x="1475" y="-230" width="120" height="60" as="geometry" />
        </mxCell>
        <mxCell id="N3VXaW1i1DPhtXQMKX1L-11" value="" style="edgeStyle=orthogonalEdgeStyle;rounded=0;orthogonalLoop=1;jettySize=auto;html=1;" parent="1" source="N3VXaW1i1DPhtXQMKX1L-6" target="N3VXaW1i1DPhtXQMKX1L-10" edge="1">
          <mxGeometry relative="1" as="geometry" />
        </mxCell>
        <mxCell id="N3VXaW1i1DPhtXQMKX1L-6" value="&lt;font face=&quot;Times New Roman&quot;&gt;List Menu&lt;/font&gt;&lt;div&gt;&lt;font face=&quot;Times New Roman&quot;&gt;Default By Client&lt;br&gt;&lt;/font&gt;&lt;span style=&quot;font-family: &amp;quot;Times New Roman&amp;quot;; background-color: transparent; color: light-dark(rgb(0, 0, 0), rgb(255, 255, 255));&quot;&gt;Privilege&amp;nbsp;&lt;/span&gt;&lt;span style=&quot;font-family: &amp;quot;Times New Roman&amp;quot;; background-color: transparent; color: light-dark(rgb(0, 0, 0), rgb(255, 255, 255));&quot;&gt;Role&lt;/span&gt;&lt;/div&gt;&lt;div&gt;&lt;font face=&quot;Times New Roman&quot;&gt;(Owner/Member)&lt;/font&gt;&lt;/div&gt;" style="shape=process;whiteSpace=wrap;html=1;backgroundOutline=1;" parent="1" vertex="1">
          <mxGeometry x="890" y="-310" width="120" height="60" as="geometry" />
        </mxCell>
        <mxCell id="N3VXaW1i1DPhtXQMKX1L-19" value="" style="edgeStyle=orthogonalEdgeStyle;rounded=0;orthogonalLoop=1;jettySize=auto;html=1;" parent="1" source="N3VXaW1i1DPhtXQMKX1L-10" target="N3VXaW1i1DPhtXQMKX1L-18" edge="1">
          <mxGeometry relative="1" as="geometry" />
        </mxCell>
        <mxCell id="N3VXaW1i1DPhtXQMKX1L-24" value="" style="edgeStyle=orthogonalEdgeStyle;rounded=0;orthogonalLoop=1;jettySize=auto;html=1;" parent="1" source="N3VXaW1i1DPhtXQMKX1L-10" target="N3VXaW1i1DPhtXQMKX1L-23" edge="1">
          <mxGeometry relative="1" as="geometry" />
        </mxCell>
        <mxCell id="N3VXaW1i1DPhtXQMKX1L-10" value="&lt;font face=&quot;Times New Roman&quot;&gt;If Role Level&lt;/font&gt;&lt;div&gt;&lt;div&gt;&lt;font face=&quot;Times New Roman&quot;&gt;&amp;gt;&amp;nbsp;&lt;/font&gt;&lt;/div&gt;&lt;div&gt;&lt;font face=&quot;Times New Roman&quot;&gt;Level Member&lt;br&gt;(Default &amp;gt; 8)&lt;/font&gt;&lt;/div&gt;&lt;/div&gt;" style="rhombus;whiteSpace=wrap;html=1;" parent="1" vertex="1">
          <mxGeometry x="880" y="-490" width="140" height="140" as="geometry" />
        </mxCell>
        <mxCell id="N3VXaW1i1DPhtXQMKX1L-17" value="&lt;font face=&quot;Times New Roman&quot;&gt;Yes&lt;/font&gt;" style="text;html=1;align=center;verticalAlign=middle;resizable=0;points=[];autosize=1;strokeColor=none;fillColor=none;" parent="1" vertex="1">
          <mxGeometry x="1010" y="-440" width="40" height="30" as="geometry" />
        </mxCell>
        <mxCell id="N3VXaW1i1DPhtXQMKX1L-18" value="&lt;span style=&quot;font-family: &amp;quot;Times New Roman&amp;quot;;&quot;&gt;Show Menu&lt;/span&gt;&lt;div&gt;&lt;span style=&quot;font-family: &amp;quot;Times New Roman&amp;quot;;&quot;&gt;By Default&lt;br&gt;(Client&amp;nbsp;&lt;/span&gt;&lt;span style=&quot;font-family: &amp;quot;Times New Roman&amp;quot;; background-color: transparent; color: light-dark(rgb(0, 0, 0), rgb(255, 255, 255));&quot;&gt;Privilege)&lt;/span&gt;&lt;/div&gt;" style="whiteSpace=wrap;html=1;" parent="1" vertex="1">
          <mxGeometry x="890" y="-590" width="120" height="60" as="geometry" />
        </mxCell>
        <mxCell id="N3VXaW1i1DPhtXQMKX1L-20" value="&lt;font face=&quot;Times New Roman&quot;&gt;No&lt;/font&gt;" style="text;html=1;align=center;verticalAlign=middle;resizable=0;points=[];autosize=1;strokeColor=none;fillColor=none;" parent="1" vertex="1">
          <mxGeometry x="920" y="-510" width="40" height="30" as="geometry" />
        </mxCell>
        <mxCell id="N3VXaW1i1DPhtXQMKX1L-26" value="" style="edgeStyle=orthogonalEdgeStyle;rounded=0;orthogonalLoop=1;jettySize=auto;html=1;" parent="1" source="N3VXaW1i1DPhtXQMKX1L-23" target="N3VXaW1i1DPhtXQMKX1L-25" edge="1">
          <mxGeometry relative="1" as="geometry" />
        </mxCell>
        <mxCell id="N3VXaW1i1DPhtXQMKX1L-34" value="" style="edgeStyle=orthogonalEdgeStyle;rounded=0;orthogonalLoop=1;jettySize=auto;html=1;" parent="1" source="N3VXaW1i1DPhtXQMKX1L-23" target="N3VXaW1i1DPhtXQMKX1L-33" edge="1">
          <mxGeometry relative="1" as="geometry" />
        </mxCell>
        <mxCell id="N3VXaW1i1DPhtXQMKX1L-23" value="&lt;div&gt;&lt;span style=&quot;font-family: &amp;quot;Times New Roman&amp;quot;;&quot;&gt;If User&lt;br&gt;Privilege&lt;/span&gt;&lt;/div&gt;" style="rhombus;whiteSpace=wrap;html=1;" parent="1" vertex="1">
          <mxGeometry x="1070" y="-460" width="80" height="80" as="geometry" />
        </mxCell>
        <mxCell id="N3VXaW1i1DPhtXQMKX1L-39" value="" style="edgeStyle=orthogonalEdgeStyle;rounded=0;orthogonalLoop=1;jettySize=auto;html=1;entryX=1;entryY=0.5;entryDx=0;entryDy=0;" parent="1" source="N3VXaW1i1DPhtXQMKX1L-25" target="N3VXaW1i1DPhtXQMKX1L-33" edge="1">
          <mxGeometry relative="1" as="geometry">
            <mxPoint x="1250" y="-640" as="targetPoint" />
            <Array as="points">
              <mxPoint x="1190" y="-560" />
              <mxPoint x="1190" y="-260" />
            </Array>
          </mxGeometry>
        </mxCell>
        <mxCell id="N3VXaW1i1DPhtXQMKX1L-25" value="&lt;font face=&quot;Times New Roman&quot;&gt;Show Menu&lt;br&gt;By User Privilege&lt;/font&gt;" style="whiteSpace=wrap;html=1;" parent="1" vertex="1">
          <mxGeometry x="1050" y="-590" width="120" height="60" as="geometry" />
        </mxCell>
        <mxCell id="N3VXaW1i1DPhtXQMKX1L-27" value="&lt;font face=&quot;Times New Roman&quot;&gt;Yes&lt;/font&gt;" style="text;html=1;align=center;verticalAlign=middle;resizable=0;points=[];autosize=1;strokeColor=none;fillColor=none;" parent="1" vertex="1">
          <mxGeometry x="1080" y="-480" width="40" height="30" as="geometry" />
        </mxCell>
        <mxCell id="N3VXaW1i1DPhtXQMKX1L-33" value="&lt;font face=&quot;Times New Roman&quot;&gt;Show Menu&lt;/font&gt;&lt;div&gt;&lt;font face=&quot;Times New Roman&quot;&gt;By Role&amp;nbsp;&lt;span style=&quot;background-color: transparent; color: light-dark(rgb(0, 0, 0), rgb(255, 255, 255));&quot;&gt;Privilege&lt;/span&gt;&lt;/font&gt;&lt;/div&gt;" style="whiteSpace=wrap;html=1;" parent="1" vertex="1">
          <mxGeometry x="1050" y="-290" width="120" height="60" as="geometry" />
        </mxCell>
        <mxCell id="N3VXaW1i1DPhtXQMKX1L-35" value="&lt;font face=&quot;Times New Roman&quot;&gt;No&lt;/font&gt;" style="text;html=1;align=center;verticalAlign=middle;resizable=0;points=[];autosize=1;strokeColor=none;fillColor=none;" parent="1" vertex="1">
          <mxGeometry x="1080" y="-390" width="40" height="30" as="geometry" />
        </mxCell>
        <mxCell id="N3VXaW1i1DPhtXQMKX1L-40" value="&lt;span style=&quot;font-family: &amp;quot;Times New Roman&amp;quot;;&quot;&gt;Router&lt;/span&gt;&lt;font face=&quot;Times New Roman&quot;&gt;&lt;br&gt;Middleware&lt;/font&gt;&lt;div&gt;&lt;div&gt;&lt;font face=&quot;Times New Roman&quot;&gt;By&lt;/font&gt;&lt;/div&gt;&lt;/div&gt;&lt;div&gt;&lt;span style=&quot;font-family: &amp;quot;Times New Roman&amp;quot;;&quot;&gt;Privilege Permission&lt;/span&gt;&lt;/div&gt;" style="shape=process;whiteSpace=wrap;html=1;backgroundOutline=1;" parent="1" vertex="1">
          <mxGeometry x="970" y="-220" width="140" height="70" as="geometry" />
        </mxCell>
        <mxCell id="URhGkLgAzNp-RWvudp00-2" value="" style="edgeStyle=orthogonalEdgeStyle;rounded=0;orthogonalLoop=1;jettySize=auto;html=1;" parent="1" source="3l0jntBAtgddx4BJqC5q-1" target="3l0jntBAtgddx4BJqC5q-2" edge="1">
          <mxGeometry relative="1" as="geometry" />
        </mxCell>
        <mxCell id="URhGkLgAzNp-RWvudp00-5" value="" style="edgeStyle=orthogonalEdgeStyle;rounded=0;orthogonalLoop=1;jettySize=auto;html=1;" parent="1" source="3l0jntBAtgddx4BJqC5q-1" target="3l0jntBAtgddx4BJqC5q-21" edge="1">
          <mxGeometry relative="1" as="geometry" />
        </mxCell>
        <mxCell id="3l0jntBAtgddx4BJqC5q-1" value="&lt;font face=&quot;Times New Roman&quot;&gt;Pembayaran&lt;/font&gt;" style="rounded=0;whiteSpace=wrap;html=1;" parent="1" vertex="1">
          <mxGeometry x="120" y="-840" width="120" height="60" as="geometry" />
        </mxCell>
        <mxCell id="3l0jntBAtgddx4BJqC5q-2" value="&lt;font face=&quot;Times New Roman&quot;&gt;Detail Pembayaran&lt;/font&gt;" style="rounded=0;whiteSpace=wrap;html=1;" parent="1" vertex="1">
          <mxGeometry x="120" y="-720" width="120" height="60" as="geometry" />
        </mxCell>
        <mxCell id="3l0jntBAtgddx4BJqC5q-5" style="edgeStyle=orthogonalEdgeStyle;rounded=0;orthogonalLoop=1;jettySize=auto;html=1;entryX=0;entryY=0.5;entryDx=0;entryDy=0;" parent="1" source="3l0jntBAtgddx4BJqC5q-4" target="3l0jntBAtgddx4BJqC5q-2" edge="1">
          <mxGeometry relative="1" as="geometry">
            <Array as="points">
              <mxPoint x="20" y="-690" />
            </Array>
          </mxGeometry>
        </mxCell>
        <mxCell id="0JskpBI3M3_ssQubHmOz-8" value="" style="edgeStyle=orthogonalEdgeStyle;rounded=0;orthogonalLoop=1;jettySize=auto;html=1;" parent="1" source="3l0jntBAtgddx4BJqC5q-4" target="3l0jntBAtgddx4BJqC5q-9" edge="1">
          <mxGeometry relative="1" as="geometry" />
        </mxCell>
        <mxCell id="3l0jntBAtgddx4BJqC5q-4" value="&lt;font face=&quot;Times New Roman&quot;&gt;Billing&lt;/font&gt;" style="rounded=0;whiteSpace=wrap;html=1;" parent="1" vertex="1">
          <mxGeometry x="-40" y="-600" width="120" height="60" as="geometry" />
        </mxCell>
        <mxCell id="3l0jntBAtgddx4BJqC5q-7" style="edgeStyle=orthogonalEdgeStyle;rounded=0;orthogonalLoop=1;jettySize=auto;html=1;entryX=1;entryY=0.5;entryDx=0;entryDy=0;" parent="1" source="3l0jntBAtgddx4BJqC5q-6" target="3l0jntBAtgddx4BJqC5q-2" edge="1">
          <mxGeometry relative="1" as="geometry">
            <Array as="points">
              <mxPoint x="340" y="-690" />
            </Array>
          </mxGeometry>
        </mxCell>
        <mxCell id="0JskpBI3M3_ssQubHmOz-1" value="" style="edgeStyle=orthogonalEdgeStyle;rounded=0;orthogonalLoop=1;jettySize=auto;html=1;" parent="1" source="3l0jntBAtgddx4BJqC5q-6" target="3l0jntBAtgddx4BJqC5q-11" edge="1">
          <mxGeometry relative="1" as="geometry" />
        </mxCell>
        <mxCell id="0JskpBI3M3_ssQubHmOz-15" value="" style="edgeStyle=orthogonalEdgeStyle;rounded=0;orthogonalLoop=1;jettySize=auto;html=1;" parent="1" source="3l0jntBAtgddx4BJqC5q-6" target="0JskpBI3M3_ssQubHmOz-14" edge="1">
          <mxGeometry relative="1" as="geometry">
            <Array as="points">
              <mxPoint x="210" y="-570" />
            </Array>
          </mxGeometry>
        </mxCell>
        <mxCell id="3l0jntBAtgddx4BJqC5q-6" value="&lt;font face=&quot;Times New Roman&quot;&gt;Penjualan&lt;/font&gt;" style="rounded=0;whiteSpace=wrap;html=1;" parent="1" vertex="1">
          <mxGeometry x="280" y="-600" width="120" height="60" as="geometry" />
        </mxCell>
        <mxCell id="3l0jntBAtgddx4BJqC5q-9" value="&lt;font face=&quot;Times New Roman&quot;&gt;Detail Billing&lt;/font&gt;" style="rounded=0;whiteSpace=wrap;html=1;" parent="1" vertex="1">
          <mxGeometry x="-40" y="-480" width="120" height="60" as="geometry" />
        </mxCell>
        <mxCell id="3l0jntBAtgddx4BJqC5q-11" value="&lt;font face=&quot;Times New Roman&quot;&gt;Penjualan Apoteker&lt;/font&gt;" style="rounded=0;whiteSpace=wrap;html=1;" parent="1" vertex="1">
          <mxGeometry x="440" y="-600" width="120" height="60" as="geometry" />
        </mxCell>
        <mxCell id="0JskpBI3M3_ssQubHmOz-13" value="" style="edgeStyle=orthogonalEdgeStyle;rounded=0;orthogonalLoop=1;jettySize=auto;html=1;" parent="1" source="3l0jntBAtgddx4BJqC5q-16" target="3l0jntBAtgddx4BJqC5q-11" edge="1">
          <mxGeometry relative="1" as="geometry" />
        </mxCell>
        <mxCell id="3l0jntBAtgddx4BJqC5q-16" value="&lt;font face=&quot;Times New Roman&quot;&gt;Resep&lt;/font&gt;" style="rounded=0;whiteSpace=wrap;html=1;" parent="1" vertex="1">
          <mxGeometry x="440" y="-465" width="120" height="60" as="geometry" />
        </mxCell>
        <mxCell id="3l0jntBAtgddx4BJqC5q-19" value="" style="edgeStyle=orthogonalEdgeStyle;rounded=0;orthogonalLoop=1;jettySize=auto;html=1;" parent="1" source="3l0jntBAtgddx4BJqC5q-18" target="3l0jntBAtgddx4BJqC5q-16" edge="1">
          <mxGeometry relative="1" as="geometry" />
        </mxCell>
        <mxCell id="0JskpBI3M3_ssQubHmOz-19" style="edgeStyle=orthogonalEdgeStyle;rounded=0;orthogonalLoop=1;jettySize=auto;html=1;entryX=0.5;entryY=1;entryDx=0;entryDy=0;" parent="1" source="3l0jntBAtgddx4BJqC5q-18" target="0JskpBI3M3_ssQubHmOz-14" edge="1">
          <mxGeometry relative="1" as="geometry" />
        </mxCell>
        <mxCell id="3l0jntBAtgddx4BJqC5q-18" value="&lt;font face=&quot;Times New Roman&quot;&gt;Detail Resep&lt;/font&gt;" style="rounded=0;whiteSpace=wrap;html=1;" parent="1" vertex="1">
          <mxGeometry x="280" y="-465" width="120" height="60" as="geometry" />
        </mxCell>
        <mxCell id="3l0jntBAtgddx4BJqC5q-21" value="&lt;font face=&quot;Times New Roman&quot;&gt;Riwayat Pembayaran&lt;/font&gt;" style="rounded=0;whiteSpace=wrap;html=1;" parent="1" vertex="1">
          <mxGeometry x="120" y="-940" width="120" height="60" as="geometry" />
        </mxCell>
        <mxCell id="3l0jntBAtgddx4BJqC5q-23" value="&lt;font face=&quot;Times New Roman&quot;&gt;Rincian PerObat &amp;amp; Biaya PerObat&lt;/font&gt;&lt;div&gt;&lt;font face=&quot;Times New Roman&quot;&gt;Rincian Jasa Pelayanan PerObat&lt;br&gt;Rincian Tuslah &amp;amp; Embalase&lt;/font&gt;&lt;/div&gt;" style="text;html=1;align=center;verticalAlign=middle;resizable=0;points=[];autosize=1;strokeColor=none;fillColor=none;" parent="1" vertex="1">
          <mxGeometry x="210" y="-405" width="190" height="60" as="geometry" />
        </mxCell>
        <mxCell id="3l0jntBAtgddx4BJqC5q-24" value="&lt;font face=&quot;Times New Roman&quot;&gt;Total Biaya Obat&lt;br&gt;Total Jasa Pelayanan&lt;/font&gt;&lt;div&gt;&lt;font face=&quot;Times New Roman&quot;&gt;Total Tuslah &amp;amp; Embalase&lt;/font&gt;&lt;/div&gt;" style="text;html=1;align=center;verticalAlign=middle;resizable=0;points=[];autosize=1;strokeColor=none;fillColor=none;" parent="1" vertex="1">
          <mxGeometry x="425" y="-405" width="140" height="60" as="geometry" />
        </mxCell>
        <mxCell id="0JskpBI3M3_ssQubHmOz-3" value="&lt;font face=&quot;Times New Roman&quot;&gt;Kolom:&lt;br&gt;jenis (Bebas, Resep)&lt;br&gt;&lt;/font&gt;" style="text;html=1;align=center;verticalAlign=middle;resizable=0;points=[];autosize=1;strokeColor=none;fillColor=none;" parent="1" vertex="1">
          <mxGeometry x="510" y="-505" width="120" height="40" as="geometry" />
        </mxCell>
        <mxCell id="0JskpBI3M3_ssQubHmOz-5" value="&lt;font face=&quot;Times New Roman&quot;&gt;Kolom:&lt;br&gt;jenis (Obat, BHP/Alkes)&lt;br&gt;&lt;/font&gt;" style="text;html=1;align=center;verticalAlign=middle;resizable=0;points=[];autosize=1;strokeColor=none;fillColor=none;" parent="1" vertex="1">
          <mxGeometry x="270" y="-505" width="140" height="40" as="geometry" />
        </mxCell>
        <mxCell id="0JskpBI3M3_ssQubHmOz-9" value="&lt;font face=&quot;Times New Roman&quot;&gt;Penjualan Bebas &lt;b&gt;tidak&lt;/b&gt; membawa &lt;b&gt;&lt;i&gt;$id_visit&lt;/i&gt;&lt;/b&gt;&lt;/font&gt;" style="text;html=1;align=center;verticalAlign=middle;resizable=0;points=[];autosize=1;strokeColor=none;fillColor=none;" parent="1" vertex="1">
          <mxGeometry x="335" y="-630" width="230" height="30" as="geometry" />
        </mxCell>
        <mxCell id="0JskpBI3M3_ssQubHmOz-10" value="&lt;font face=&quot;Times New Roman&quot;&gt;Kolom:&lt;br&gt;is_penjualan_bebas (0: Tidak, 1: Iya)&lt;br&gt;&lt;/font&gt;" style="text;html=1;align=center;verticalAlign=middle;resizable=0;points=[];autosize=1;strokeColor=none;fillColor=none;" parent="1" vertex="1">
          <mxGeometry x="280" y="-545" width="200" height="40" as="geometry" />
        </mxCell>
        <mxCell id="0JskpBI3M3_ssQubHmOz-12" value="&lt;font face=&quot;Times New Roman&quot;&gt;detail list barang yang penualan bebas&lt;/font&gt;&lt;div&gt;&lt;font face=&quot;Times New Roman&quot;&gt;tetap masuk ke detail resep&lt;/font&gt;&lt;/div&gt;&lt;div&gt;&lt;font face=&quot;Times New Roman&quot;&gt;namun tabel resep harus isi &lt;b&gt;&lt;i&gt;jenis&lt;/i&gt;&lt;/b&gt;&lt;/font&gt;&lt;/div&gt;" style="text;html=1;align=center;verticalAlign=middle;resizable=0;points=[];autosize=1;strokeColor=none;fillColor=none;" parent="1" vertex="1">
          <mxGeometry x="550" y="-465" width="210" height="60" as="geometry" />
        </mxCell>
        <mxCell id="0JskpBI3M3_ssQubHmOz-14" value="&lt;font face=&quot;Times New Roman&quot;&gt;Detail Penjualan&lt;/font&gt;" style="rounded=0;whiteSpace=wrap;html=1;" parent="1" vertex="1">
          <mxGeometry x="150" y="-530" width="120" height="60" as="geometry" />
        </mxCell>
        <mxCell id="0JskpBI3M3_ssQubHmOz-20" value="&lt;font face=&quot;Times New Roman&quot;&gt;Total Penjualan = SUM(Sub Total Detail Penjualan)&lt;/font&gt;" style="text;html=1;align=center;verticalAlign=middle;resizable=0;points=[];autosize=1;strokeColor=none;fillColor=none;" parent="1" vertex="1">
          <mxGeometry x="250" y="-650" width="270" height="30" as="geometry" />
        </mxCell>
        <mxCell id="URhGkLgAzNp-RWvudp00-3" value="&lt;font face=&quot;Times New Roman&quot;&gt;Total Tagihan = SUM(Sub Total Detail Tagihan)&lt;/font&gt;" style="text;html=1;align=center;verticalAlign=middle;resizable=0;points=[];autosize=1;strokeColor=none;fillColor=none;" parent="1" vertex="1">
          <mxGeometry x="100" y="-750" width="260" height="30" as="geometry" />
        </mxCell>
        <mxCell id="URhGkLgAzNp-RWvudp00-6" value="&lt;font face=&quot;Times New Roman&quot;&gt;Total Pembayaran = SUM(Sub Total Riwayat Pembayaran)&lt;/font&gt;" style="text;html=1;align=center;verticalAlign=middle;resizable=0;points=[];autosize=1;strokeColor=none;fillColor=none;" parent="1" vertex="1">
          <mxGeometry x="40" y="-970" width="310" height="30" as="geometry" />
        </mxCell>
        <mxCell id="URhGkLgAzNp-RWvudp00-7" value="&lt;font face=&quot;Times New Roman&quot;&gt;kolom: id_visit, id_pasien, id_client&lt;/font&gt;&lt;div&gt;&lt;font face=&quot;Times New Roman&quot;&gt;jenis_billing, id_paket_tarif, status,&lt;br&gt;jenis asuransi&lt;/font&gt;&lt;/div&gt;" style="text;html=1;align=center;verticalAlign=middle;resizable=0;points=[];autosize=1;strokeColor=none;fillColor=none;" parent="1" vertex="1">
          <mxGeometry x="-180" y="-645" width="200" height="60" as="geometry" />
        </mxCell>
        <mxCell id="URhGkLgAzNp-RWvudp00-9" value="&lt;font face=&quot;Times New Roman&quot;&gt;id_induk_tarif menyimpan&lt;/font&gt;&lt;div&gt;&lt;font face=&quot;Times New Roman&quot;&gt;paket tarif atau individual tarif&lt;/font&gt;&lt;/div&gt;" style="text;html=1;align=center;verticalAlign=middle;resizable=0;points=[];autosize=1;strokeColor=none;fillColor=none;" parent="1" vertex="1">
          <mxGeometry x="-145" y="-675" width="170" height="40" as="geometry" />
        </mxCell>
        <mxCell id="URhGkLgAzNp-RWvudp00-16" value="jenis_billing&lt;br&gt;(Rawat Jalan, Rawat Inap, Paket, dll.)" style="text;html=1;align=center;verticalAlign=middle;resizable=0;points=[];autosize=1;strokeColor=none;fillColor=none;" parent="1" vertex="1">
          <mxGeometry x="-130" y="-545" width="220" height="40" as="geometry" />
        </mxCell>
        <mxCell id="URhGkLgAzNp-RWvudp00-30" value="" style="edgeStyle=orthogonalEdgeStyle;rounded=0;orthogonalLoop=1;jettySize=auto;html=1;" parent="1" source="URhGkLgAzNp-RWvudp00-17" target="URhGkLgAzNp-RWvudp00-28" edge="1">
          <mxGeometry relative="1" as="geometry" />
        </mxCell>
        <mxCell id="URhGkLgAzNp-RWvudp00-17" value="&lt;font face=&quot;Times New Roman&quot;&gt;Master Data&lt;br&gt;Tarif&lt;/font&gt;" style="rounded=0;whiteSpace=wrap;html=1;" parent="1" vertex="1">
          <mxGeometry x="-360" y="-580" width="120" height="60" as="geometry" />
        </mxCell>
        <mxCell id="URhGkLgAzNp-RWvudp00-18" value="" style="edgeStyle=orthogonalEdgeStyle;rounded=0;orthogonalLoop=1;jettySize=auto;html=1;" parent="1" source="URhGkLgAzNp-RWvudp00-19" target="URhGkLgAzNp-RWvudp00-17" edge="1">
          <mxGeometry relative="1" as="geometry" />
        </mxCell>
        <mxCell id="URhGkLgAzNp-RWvudp00-19" value="&lt;font face=&quot;Times New Roman&quot;&gt;Layanan&lt;/font&gt;" style="rounded=0;whiteSpace=wrap;html=1;" parent="1" vertex="1">
          <mxGeometry x="-360" y="-680" width="120" height="60" as="geometry" />
        </mxCell>
        <mxCell id="URhGkLgAzNp-RWvudp00-22" value="" style="edgeStyle=orthogonalEdgeStyle;rounded=0;orthogonalLoop=1;jettySize=auto;html=1;" parent="1" source="URhGkLgAzNp-RWvudp00-20" target="3l0jntBAtgddx4BJqC5q-9" edge="1">
          <mxGeometry relative="1" as="geometry" />
        </mxCell>
        <mxCell id="URhGkLgAzNp-RWvudp00-31" value="" style="edgeStyle=orthogonalEdgeStyle;rounded=0;orthogonalLoop=1;jettySize=auto;html=1;" parent="1" source="URhGkLgAzNp-RWvudp00-20" target="URhGkLgAzNp-RWvudp00-28" edge="1">
          <mxGeometry relative="1" as="geometry" />
        </mxCell>
        <mxCell id="URhGkLgAzNp-RWvudp00-20" value="&lt;span style=&quot;font-family: &amp;quot;Times New Roman&amp;quot;;&quot;&gt;Master Data&lt;/span&gt;&lt;font face=&quot;Times New Roman&quot;&gt;&lt;br&gt;Paket Tarif&lt;/font&gt;" style="rounded=0;whiteSpace=wrap;html=1;" parent="1" vertex="1">
          <mxGeometry x="-200" y="-480" width="120" height="60" as="geometry" />
        </mxCell>
        <mxCell id="URhGkLgAzNp-RWvudp00-23" value="&lt;font face=&quot;Times New Roman&quot;&gt;kolom: id_billing, id_paket_tarif&lt;/font&gt;" style="text;html=1;align=center;verticalAlign=middle;resizable=0;points=[];autosize=1;strokeColor=none;fillColor=none;" parent="1" vertex="1">
          <mxGeometry x="-10" y="-420" width="180" height="30" as="geometry" />
        </mxCell>
        <mxCell id="URhGkLgAzNp-RWvudp00-26" value="" style="edgeStyle=orthogonalEdgeStyle;rounded=0;orthogonalLoop=1;jettySize=auto;html=1;" parent="1" source="URhGkLgAzNp-RWvudp00-25" target="URhGkLgAzNp-RWvudp00-20" edge="1">
          <mxGeometry relative="1" as="geometry">
            <Array as="points">
              <mxPoint x="-180" y="-580" />
              <mxPoint x="-180" y="-580" />
            </Array>
          </mxGeometry>
        </mxCell>
        <mxCell id="URhGkLgAzNp-RWvudp00-25" value="&lt;font face=&quot;Times New Roman&quot;&gt;Produk Asuransi&lt;/font&gt;" style="rounded=0;whiteSpace=wrap;html=1;" parent="1" vertex="1">
          <mxGeometry x="-240" y="-820" width="120" height="60" as="geometry" />
        </mxCell>
        <mxCell id="URhGkLgAzNp-RWvudp00-27" value="&lt;font face=&quot;Times New Roman&quot;&gt;Menambahkan tarif tindakan&lt;/font&gt;&lt;div&gt;&lt;font face=&quot;Times New Roman&quot;&gt;setiap buat baru&lt;/font&gt;&lt;/div&gt;" style="text;html=1;align=center;verticalAlign=middle;resizable=0;points=[];autosize=1;strokeColor=none;fillColor=none;" parent="1" vertex="1">
          <mxGeometry x="-460" y="-620" width="160" height="40" as="geometry" />
        </mxCell>
        <mxCell id="URhGkLgAzNp-RWvudp00-28" value="&lt;span style=&quot;font-family: &amp;quot;Times New Roman&amp;quot;;&quot;&gt;Master Data&lt;/span&gt;&lt;font face=&quot;Times New Roman&quot;&gt;&lt;br&gt;Detail Paket Tarif&lt;/font&gt;" style="rounded=0;whiteSpace=wrap;html=1;" parent="1" vertex="1">
          <mxGeometry x="-360" y="-480" width="120" height="60" as="geometry" />
        </mxCell>
        <mxCell id="URhGkLgAzNp-RWvudp00-32" value="&lt;font face=&quot;Times New Roman&quot;&gt;jenis tarif&lt;br&gt;jenis tindakan&lt;/font&gt;&lt;div&gt;&lt;font face=&quot;Times New Roman&quot;&gt;jenis pasien&lt;/font&gt;&lt;/div&gt;&lt;div&gt;&lt;font face=&quot;Times New Roman&quot;&gt;jenis kunjungan&lt;/font&gt;&lt;/div&gt;" style="text;html=1;align=center;verticalAlign=middle;resizable=0;points=[];autosize=1;strokeColor=none;fillColor=none;" parent="1" vertex="1">
          <mxGeometry x="-230" y="-425" width="100" height="70" as="geometry" />
        </mxCell>
        <mxCell id="VL8X0yO_o2IHgD8Fa4el-1" value="&lt;font face=&quot;Times New Roman&quot;&gt;Sistem Pembayaran&lt;/font&gt;&lt;div&gt;&lt;font face=&quot;Times New Roman&quot;&gt;Billing / Penjualan&lt;br&gt;Harus dipilih dulu lalu&lt;/font&gt;&lt;/div&gt;&lt;div&gt;&lt;font face=&quot;Times New Roman&quot;&gt;dihitung dan disimpan&lt;/font&gt;&lt;/div&gt;" style="text;html=1;align=center;verticalAlign=middle;resizable=0;points=[];autosize=1;strokeColor=none;fillColor=none;" parent="1" vertex="1">
          <mxGeometry x="295" y="-830" width="130" height="70" as="geometry" />
        </mxCell>
        <mxCell id="JLmEJtWa7kc5WCSeo0B1-1" value="&lt;div style=&quot;text-align: justify;&quot;&gt;&lt;span style=&quot;font-family: &amp;quot;Times New Roman&amp;quot;; background-color: transparent; color: light-dark(rgb(0, 0, 0), rgb(255, 255, 255));&quot;&gt;Catatan;&lt;/span&gt;&lt;/div&gt;&lt;div style=&quot;text-align: justify;&quot;&gt;&lt;font face=&quot;Times New Roman&quot;&gt;1. Jika Penjualan Bebas&lt;/font&gt;&lt;/div&gt;&lt;div style=&quot;text-align: justify;&quot;&gt;&lt;font face=&quot;Times New Roman&quot;&gt;Langsung saja di Insert ke Detail Penjualan&lt;/font&gt;&lt;/div&gt;&lt;div style=&quot;text-align: justify;&quot;&gt;&lt;font face=&quot;Times New Roman&quot;&gt;&lt;br&gt;&lt;/font&gt;&lt;/div&gt;&lt;div style=&quot;text-align: justify;&quot;&gt;&lt;font face=&quot;Times New Roman&quot;&gt;2. Saran mas Ahdi Detail Billing itu&lt;/font&gt;&lt;/div&gt;&lt;div style=&quot;text-align: justify;&quot;&gt;&lt;font face=&quot;Times New Roman&quot;&gt;hanya menyimpan id_layanan saja.&lt;/font&gt;&lt;/div&gt;&lt;div style=&quot;text-align: justify;&quot;&gt;&lt;font face=&quot;Times New Roman&quot;&gt;Tarif dan Biayanya&amp;nbsp;&lt;/font&gt;&lt;/div&gt;&lt;div style=&quot;text-align: justify;&quot;&gt;&lt;font face=&quot;Times New Roman&quot;&gt;di relasikan ketika pembayaran&lt;/font&gt;&lt;/div&gt;&lt;div style=&quot;text-align: justify;&quot;&gt;&lt;font face=&quot;Times New Roman&quot;&gt;&lt;br&gt;&lt;/font&gt;&lt;/div&gt;&lt;div style=&quot;text-align: justify;&quot;&gt;&lt;font face=&quot;Times New Roman&quot;&gt;3. Kalau bisa halaman menu pada pelayanan&lt;/font&gt;&lt;/div&gt;&lt;div style=&quot;text-align: justify;&quot;&gt;&lt;font face=&quot;Times New Roman&quot;&gt;hanya load content fiturnya (DOM), jangan redirect ke&amp;nbsp;&lt;/font&gt;&lt;/div&gt;&lt;div style=&quot;text-align: justify;&quot;&gt;&lt;font face=&quot;Times New Roman&quot;&gt;halaman lain&lt;/font&gt;&lt;/div&gt;&lt;div style=&quot;text-align: justify;&quot;&gt;&lt;font face=&quot;Times New Roman&quot;&gt;&lt;br&gt;&lt;/font&gt;&lt;/div&gt;&lt;div style=&quot;text-align: justify;&quot;&gt;&lt;font face=&quot;Times New Roman&quot;&gt;4. Memberikan notif yang informatif jangan hanya&lt;/font&gt;&lt;/div&gt;&lt;div style=&quot;text-align: justify;&quot;&gt;&lt;font face=&quot;Times New Roman&quot;&gt;error saja&lt;/font&gt;&lt;/div&gt;&lt;div style=&quot;text-align: justify;&quot;&gt;&lt;font face=&quot;Times New Roman&quot;&gt;&lt;br&gt;&lt;/font&gt;&lt;/div&gt;&lt;div style=&quot;text-align: justify;&quot;&gt;&lt;font face=&quot;Times New Roman&quot;&gt;5. Pendaftaran/Pembayaran pasien sudah memastikan&lt;/font&gt;&lt;/div&gt;&lt;div style=&quot;text-align: justify;&quot;&gt;&lt;font face=&quot;Times New Roman&quot;&gt;mau pembayaran via apa, dan sinkronisasi dengan&lt;/font&gt;&lt;/div&gt;&lt;div style=&quot;text-align: justify;&quot;&gt;&lt;font face=&quot;Times New Roman&quot;&gt;kasir. bisa di ubah - ubah tarif/biayanya. Biaya layanan&lt;/font&gt;&lt;/div&gt;&lt;div style=&quot;text-align: justify;&quot;&gt;&lt;font face=&quot;Times New Roman&quot;&gt;ketika mau bayar tidak perlu di references&lt;/font&gt;&lt;/div&gt;" style="text;html=1;align=center;verticalAlign=middle;resizable=0;points=[];autosize=1;strokeColor=none;fillColor=none;" parent="1" vertex="1">
          <mxGeometry x="-360" y="-320" width="290" height="300" as="geometry" />
        </mxCell>
      </root>
    </mxGraphModel>
  </diagram>
</mxfile>
